<?xml version="1.0" encoding="UTF-8"?>
<svg id="Layer_2" data-name="Layer 2" xmlns="http://www.w3.org/2000/svg" xmlns:xlink="http://www.w3.org/1999/xlink" viewBox="0 0 1239.08 272.64">
  <defs>
    <style>
      .cls-1 {
        fill: none;
      }

      .cls-2 {
        fill: url(#linear-gradient);
      }

      .cls-3 {
        clip-path: url(#clippath);
      }

      .cls-4 {
        fill: #37b34a;
      }

      .cls-5 {
        clip-path: url(#clippath-1);
      }

      .cls-6 {
        clip-path: url(#clippath-3);
      }

      .cls-7 {
        clip-path: url(#clippath-2);
      }

      .cls-8 {
        fill: url(#New_Gradient_Swatch_1);
      }

      .cls-9 {
        fill: url(#linear-gradient-3);
      }

      .cls-10 {
        fill: url(#linear-gradient-2);
      }
    </style>
    <clipPath id="clippath">
      <path class="cls-1" d="M66.82,184.28c-5.11-8.12-8.82-18.29-10.14-30.96-1.68-16.13,1.95-33.14,11.75-49.13,13.83-29.36,36.24-51.01,71.81-73.44C171.85,10.82,208.51,3.32,234.73,.47c-29.55,1.53-96.79,8.03-152.55,35.59-.62,.31-1.24,.63-1.86,.95-9.99,16.34-19.35,37.67-24.33,62.55-7.5,37.5-1.26,68.4,10.83,84.73Z"/>
    </clipPath>
    <linearGradient id="linear-gradient" x1="212.64" y1="-48.05" x2="213.71" y2="-48.05" gradientTransform="translate(-46225.02 22607.46) rotate(-38.6) scale(235.96 -235.96)" gradientUnits="userSpaceOnUse">
      <stop offset="0" stop-color="#d0d2d3"/>
      <stop offset=".19" stop-color="#d0d2d3"/>
      <stop offset=".69" stop-color="#dbdcdd"/>
      <stop offset="1" stop-color="#dbdcdd"/>
    </linearGradient>
    <clipPath id="clippath-1">
      <path class="cls-1" d="M249.92,0h-.3c-1.27,0-6.6,.04-14.89,.47-26.22,2.85-62.88,10.35-94.49,30.28-35.57,22.43-57.97,44.07-71.81,73.44,7.41-12.09,18.34-23.59,33.2-33.68,44.69-30.35,111.5-34.96,117.44-35.22h0c5.42-.46,22.32-1.28,34.26-1.33-.02-.27-.03-.55-.05-.82-1.34-20.18-3.37-33.14-3.37-33.14Z"/>
    </clipPath>
    <linearGradient id="linear-gradient-2" x1="237.78" y1="-40.85" x2="239.06" y2="-40.85" gradientTransform="translate(-38861.56 -6629.19) scale(163.62 -163.62)" gradientUnits="userSpaceOnUse">
      <stop offset="0" stop-color="#f48120"/>
      <stop offset=".35" stop-color="#f48120"/>
      <stop offset=".53" stop-color="#f68e1c"/>
      <stop offset=".87" stop-color="#fcb112"/>
      <stop offset="1" stop-color="#ffc10e"/>
      <stop offset="1" stop-color="#ffc10e"/>
    </linearGradient>
    <clipPath id="clippath-2">
      <path class="cls-1" d="M164.05,201.57c-12.74,7.68-26.31,11.09-39.41,12.08-13.56,1.03-42.22-4.58-57.82-29.38-12.09-16.32-18.33-47.22-10.83-84.73,4.98-24.88,14.34-46.21,24.33-62.55-5.48,2.77-10.85,5.73-16.03,8.91C10.84,78.8-5.52,134.24,1.56,178.11c2.27,14.07,6.51,26.21,12.05,36.62,15.53,7.67,38.56,15.1,68.62,14.79,33.88-.36,62.08-13.64,81.82-27.94Z"/>
    </clipPath>
    <linearGradient id="linear-gradient-3" x1="222.75" y1="9.05" x2="223.82" y2="9.05" gradientTransform="translate(-7140.08 -40000.78) rotate(82.11) scale(182.49 -182.49)" gradientUnits="userSpaceOnUse">
      <stop offset="0" stop-color="#b2d235"/>
      <stop offset=".1" stop-color="#b2d235"/>
      <stop offset=".31" stop-color="#96c93b"/>
      <stop offset=".55" stop-color="#7bc141"/>
      <stop offset=".69" stop-color="#72be44"/>
      <stop offset="1" stop-color="#72be44"/>
    </linearGradient>
    <clipPath id="clippath-3">
      <path class="cls-1" d="M207.12,144.56c-10.9,29.31-26.26,46.88-43.07,57.01-19.74,14.3-47.93,27.59-81.82,27.94-30.06,.32-53.09-7.12-68.62-14.79,0,0,0,0,0,.01,23.26,43.77,69.78,57.42,93.09,57.87,35.91,.73,101.78-13.05,131.27-94.6,17.71-48.91,17.69-107.79,15.36-144.05-11.94,.06-28.85,.88-34.26,1.33,.03,1.52,6.46,59.73-11.96,109.27Z"/>
    </clipPath>
    <linearGradient id="New_Gradient_Swatch_1" data-name="New Gradient Swatch 1" x1="186.79" y1="-47.91" x2="187.87" y2="-47.91" gradientTransform="translate(-10604.34 42143.75) rotate(-90) scale(224.15 -224.15)" gradientUnits="userSpaceOnUse">
      <stop offset="0" stop-color="#24b24b"/>
      <stop offset=".29" stop-color="#24b24b"/>
      <stop offset=".37" stop-color="#33b548"/>
      <stop offset=".66" stop-color="#69bf41"/>
      <stop offset=".88" stop-color="#8bc63d"/>
      <stop offset="1" stop-color="#98c93c"/>
      <stop offset="1" stop-color="#98c93c"/>
      <stop offset="1" stop-color="#98c93c"/>
    </linearGradient>
  </defs>
  <g id="Layer_2-2" data-name="Layer 2">
    <g>
      <g>
        <g class="cls-3">
          <polygon class="cls-2" points="-48.1 74.67 171.59 -100.7 345.95 117.72 126.27 293.08 -48.1 74.67"/>
        </g>
        <g class="cls-5">
          <rect class="cls-10" x="45.19" y="-.93" width="209.71" height="111.27"/>
        </g>
        <g class="cls-7">
          <polygon class="cls-9" points="182.55 9.29 212.69 226.68 -1.59 256.37 -31.73 38.99 182.55 9.29"/>
        </g>
        <g class="cls-6">
          <rect class="cls-8" x="11.78" y="31.24" width="245.66" height="243.65"/>
        </g>
      </g>
      <g>
        <path class="cls-4" d="M468.27,105.87c-8.62,0-16.56,1.59-23.58,4.73-6.98,3.11-13.01,7.32-17.92,12.51-4.91,5.18-8.73,11.25-11.39,18.04-2.64,6.77-3.97,13.97-3.97,21.4s1.3,14.22,3.86,20.98c2.58,6.8,6.38,12.9,11.29,18.15,4.91,5.25,10.93,9.53,17.9,12.71,7.04,3.21,15.05,4.84,23.81,4.84s17.18-1.62,24.39-4.82c3.18-1.41,6.17-3.11,8.98-5.09l.09,9.88h22.86V105.87h-56.31Zm-25.39,79.85c-2.82-3.24-4.97-6.93-6.38-10.96-1.44-4.1-2.17-8.21-2.17-12.22,0-5.1,.89-9.77,2.67-13.89,1.78-4.15,4.21-7.76,7.24-10.72,3.01-2.96,6.64-5.32,10.77-6.99,4.16-1.68,8.62-2.53,13.26-2.53h33.39v4.84c0,33.52-1.44,41.13-2.01,42.7-1.68,4.28-3.92,7.85-6.72,10.65-2.92,3.04-6.46,5.5-10.52,7.34-3.96,1.81-8.53,2.72-13.59,2.72-5.87,0-11.01-1.02-15.25-3.04-4.31-2.05-7.91-4.71-10.69-7.91"/>
        <path class="cls-4" d="M626.84,117.03c-3.32-2.63-6.72-4.71-10.09-6.18-3.21-1.4-6.36-2.5-9.37-3.25-3-.75-5.89-1.24-8.57-1.44-2.52-.19-4.75-.29-6.61-.29h-50.01l-.02,113.32h22.91v-90.63l27.68-.15c5.42,0,9.62,.67,12.47,1.97,3.1,1.42,5.52,2.88,7.09,4.26,2.4,2.22,4.36,5.3,5.81,9.17,1.53,4.07,2.3,9.51,2.3,16.15v59.23h23.11v-59.23c0-19.09-5.57-33.49-16.7-42.93"/>
        <path class="cls-4" d="M987.67,117.03c-3.32-2.63-6.72-4.71-10.09-6.18-3.2-1.4-6.36-2.5-9.37-3.25-3-.75-5.89-1.24-8.57-1.44-2.52-.19-4.75-.29-6.61-.29-6.61,0-13.16,1.09-19.5,3.25-2.59,.88-5.04,1.98-7.35,3.28v-36.97h-23.2V219.23h22.92v-63.5c0-8.94,2.35-15.57,7.14-20.28,4.84-4.73,11.56-7.04,20.54-7.04,5.42,0,9.61,.67,12.47,1.97,3.07,1.41,5.53,2.85,7.33,4.33,2.26,2.21,4.14,5.27,5.58,9.1,1.53,4.07,2.31,9.51,2.31,16.15v59.27h23.1v-59.27c0-19.09-5.57-33.49-16.7-42.93"/>
        <path class="cls-4" d="M1073.73,105.87c-8.62,0-16.56,1.59-23.58,4.72-6.97,3.12-13.01,7.33-17.92,12.52-4.91,5.18-8.74,11.24-11.39,18.04-2.64,6.77-3.98,13.97-3.98,21.39s1.31,14.23,3.87,20.98c2.58,6.8,6.38,12.92,11.29,18.15,4.91,5.26,10.94,9.54,17.91,12.71,7.04,3.21,15.05,4.84,23.8,4.84s17.19-1.63,24.4-4.82c3.17-1.41,6.17-3.1,8.97-5.09l-.18,9.91h23.12V105.87h-56.31Zm-25.39,79.85c-2.82-3.24-4.98-6.93-6.38-10.95-1.44-4.1-2.18-8.21-2.18-12.22,0-5.09,.91-9.76,2.67-13.88,1.79-4.15,4.22-7.76,7.24-10.72,3.02-2.96,6.64-5.32,10.78-6.98,4.15-1.68,8.61-2.54,13.26-2.54h33.4v4.84c0,33.51-1.44,41.13-2.01,42.71-1.67,4.27-3.91,7.83-6.72,10.66-2.92,3.03-6.47,5.49-10.53,7.34-3.96,1.8-8.53,2.71-13.59,2.71-5.87,0-11.01-1.02-15.25-3.04-4.31-2.05-7.91-4.71-10.69-7.91"/>
        <polygon class="cls-4" points="1170.16 192.24 1170.16 219.36 1147.24 219.36 1147.24 75.43 1170.41 75.43 1170.46 153.67 1206.42 105.87 1235.56 105.87 1195.21 159.19 1239.08 219.36 1209.44 219.36 1180.76 178.05 1170.16 192.24"/>
        <path class="cls-4" d="M402.67,162.72c0-7.15-1.3-14.18-3.85-20.91-2.57-6.77-6.36-12.86-11.25-18.09-4.88-5.23-10.89-9.5-17.83-12.66-7.02-3.2-14.99-4.82-23.72-4.82s-17.12,1.62-24.3,4.8c-3.16,1.4-6.15,3.1-8.94,5.08l-.08-40.68h-22.78V219.2h56.11c8.59,0,16.5-1.59,23.49-4.71,6.95-3.11,12.96-7.3,17.86-12.48,4.89-5.15,8.7-11.2,11.34-17.97,2.63-6.75,3.96-13.92,3.96-21.32m-70.75-31.3c3.95-1.8,8.51-2.71,13.54-2.71,5.85,0,10.98,1.02,15.2,3.03,4.29,2.03,7.87,4.69,10.65,7.89,2.82,3.23,4.96,6.9,6.36,10.92,1.43,4.09,2.16,8.18,2.16,12.17,0,5.08-.89,9.73-2.66,13.83-1.79,4.14-4.22,7.74-7.22,10.69-3,2.95-6.62,5.3-10.74,6.96-4.14,1.68-8.58,2.53-13.21,2.53h-33.27v-4.82c0-33.39,1.44-40.97,2.05-42.68,1.61-4.12,3.84-7.66,6.58-10.4,2.98-3.1,6.5-5.55,10.55-7.39"/>
        <path class="cls-4" d="M866.64,183.86c-.83,1.09-1.68,2.15-2.64,3.11-2.97,2.97-6.56,5.34-10.72,7.06-8.25,3.45-18.89,3.45-27.02,0-4.09-1.72-7.67-4.1-10.63-7.07-2.97-2.97-5.35-6.57-7.08-10.71-1.72-4.14-2.59-8.77-2.59-13.76s.87-9.48,2.6-13.68c1.74-4.2,4.11-7.83,7.07-10.78,2.96-2.97,6.54-5.36,10.63-7.08,4.07-1.72,8.6-2.6,13.46-2.6s9.43,.88,13.57,2.6c4.14,1.73,7.74,4.1,10.71,7.07,1.04,1.05,1.99,2.2,2.88,3.4h.72l22.6-5.72c-2.63-5.06-5.94-9.63-9.91-13.61-5.11-5.11-11.17-9.15-18.04-12-6.87-2.86-14.45-4.3-22.53-4.3s-15.68,1.44-22.53,4.3c-6.86,2.86-12.94,6.9-18.05,12-5.11,5.11-9.15,11.18-12,18.03-2.85,6.87-4.3,14.38-4.3,22.35s1.44,15.5,4.3,22.42c2.85,6.95,6.91,13.03,12.03,18.09,5.11,5.04,11.17,9.03,18.01,11.88,6.87,2.86,14.45,4.3,22.54,4.3s15.67-1.44,22.53-4.3c6.84-2.85,12.9-6.85,18.01-11.88,3.89-3.84,7.16-8.28,9.76-13.24l-23.38-5.91Z"/>
        <path class="cls-4" d="M712.4,105.87c-8.62,0-16.55,1.59-23.59,4.72-6.97,3.11-13,7.33-17.91,12.51-4.9,5.19-8.73,11.26-11.39,18.05-2.64,6.77-3.98,13.97-3.98,21.4s1.3,14.23,3.87,20.98c2.58,6.8,6.38,12.92,11.29,18.16,4.91,5.25,10.93,9.52,17.9,12.7,7.04,3.2,15.05,4.84,23.8,4.84s17.19-1.62,24.4-4.81c3.18-1.41,6.17-3.11,8.97-5.09l.05,3.85c0,4.53-.28,7.78-.6,10.01-.41,1.82-.92,3.6-1.62,5.27-1.76,4.2-4.17,7.86-7.18,10.88-3.02,3.01-6.65,5.44-10.82,7.19-8.25,3.5-19.07,3.5-27.46,0-4.21-1.76-7.87-4.17-10.88-7.18-.97-.97-1.85-2.05-2.69-3.16l-23.76,6.01c2.65,5.04,5.97,9.55,9.92,13.45,5.19,5.11,11.34,9.17,18.3,12.07,6.97,2.9,14.68,4.38,22.89,4.38s15.92-1.48,22.89-4.38c6.95-2.9,12.12-6.95,17.31-12.07,5.2-5.14,9.32-11.32,12.23-18.37,.21-.53,.38-1.06,.58-1.58l.03,.03s.17-.48,.43-1.27c.71-2.06,1.3-4.17,1.79-6.33,.81-3.39,1.53-7.44,1.53-11.09V105.87h-56.31Zm31.38,70.1c-1.67,4.27-3.91,7.83-6.72,10.65-2.93,3.03-6.47,5.5-10.52,7.35-3.96,1.8-8.54,2.71-13.6,2.71-5.88,0-11-1.02-15.25-3.04-4.31-2.05-7.91-4.71-10.7-7.91-2.82-3.25-4.97-6.93-6.38-10.96-1.44-4.1-2.17-8.21-2.17-12.22,0-5.09,.89-9.76,2.67-13.88,1.78-4.15,4.22-7.76,7.24-10.73,3.02-2.97,6.64-5.31,10.77-6.98,4.16-1.68,8.62-2.53,13.26-2.53h33.4v4.83c0,33.51-1.44,41.13-2.01,42.71"/>
      </g>
    </g>
  </g>
</svg>