<svg id="Capa_1" enable-background="new 0 0 512 512" height="512" viewBox="0 0 512 512" width="512" xmlns="http://www.w3.org/2000/svg"><g><g><g><g><g><path d="m301 512h-90v-91h90z" fill="#cfd7e6"/></g></g></g></g><path d="m256 421h45v91h-45z" fill="#adb8cc"/><g><path d="m451 271h61v30h-61z" fill="#adb8cc"/></g><g><path d="m0 271h61v30h-61z" fill="#cfd7e6"/></g><g><path d="m241 75h30v61h-30z" fill="#cfd7e6"/></g><path d="m256 75h15v61h-15z" fill="#adb8cc"/><g id="Chatbot_12_"><g><path d="m376 451h-240c-57.891 0-105-47.109-105-105v-120c0-57.891 47.109-105 105-105h240c57.891 0 105 47.109 105 105v120c0 57.891-47.109 105-105 105z" fill="#f3f5f9"/><path d="m376 121h-120v330h120c57.891 0 105-47.109 105-105v-120c0-57.891-47.109-105-105-105z" fill="#e1e6f0"/><path d="m136 421c-41.367 0-75-33.647-75-75v-120c0-41.353 33.633-75 75-75h240c41.367 0 75 33.647 75 75v120c0 41.353-33.633 75-75 75z" fill="#4d4d80"/><path d="m376 151h-120v270h120c41.367 0 75-33.647 75-75v-120c0-41.353-33.633-75-75-75z" fill="#443d66"/></g><g><g><g><g><path d="m256 90c-24.814 0-45-20.186-45-45s20.186-45 45-45 45 20.186 45 45-20.186 45-45 45z" fill="#cfd7e6"/></g></g></g></g><path d="m301 45c0-24.814-20.186-45-45-45v90c24.814 0 45-20.186 45-45z" fill="#adb8cc"/><g><path d="m166 301c-24.814 0-45-20.186-45-45s20.186-45 45-45 45 20.186 45 45-20.186 45-45 45z" fill="#6cf"/></g><g><path d="m346 301c-24.814 0-45-20.186-45-45s20.186-45 45-45 45 20.186 45 45-20.186 45-45 45z" fill="#59abff"/></g><g><path d="m271 391h-30c-33.076 0-60-26.909-60-60h30c0 16.538 13.447 30 30 30h30c16.553 0 30-13.462 30-30h30c0 33.091-26.924 60-60 60z" fill="#6cf"/></g></g><g><g id="Chatbot_7_"><path d="m271 361h-15v30h15c33.076 0 60-26.909 60-60h-30c0 16.538-13.447 30-30 30z" fill="#59abff"/></g></g></g></svg>