<svg height="512pt" viewBox="0 -66 512 512" width="512pt" xmlns="http://www.w3.org/2000/svg"><path d="m0 70h512v310h-512zm0 0" fill="#0c4ead"/><path d="m256 70h256v310h-256zm0 0" fill="#073e89"/><path d="m0 0h512v70h-512zm0 0" fill="#e4f7ff"/><path d="m256 0h256v70h-256zm0 0" fill="#cbedfd"/><path d="m175.394531 285.605469-70.609375-70.605469 70.609375-70.605469 21.210938 21.210938-49.390625 49.394531 49.390625 49.394531zm0 0" fill="#e4f7ff"/><path d="m336.605469 285.605469-21.210938-21.210938 49.390625-49.394531-49.390625-49.394531 21.210938-21.210938 70.609375 70.605469zm0 0" fill="#cbedfd"/><path d="m261.578125 140.867188 28.84375 8.242187-39.996094 139.996094-28.847656-8.242188zm0 0" fill="#e4f7ff"/><path d="m256 269.601562 34.421875-120.480468-28.84375-8.242188-5.578125 19.519532zm0 0" fill="#cbedfd"/></svg>