<svg id="Capa_1" enable-background="new 0 0 510 510" height="512" viewBox="0 0 510 510" width="512" xmlns="http://www.w3.org/2000/svg"><g><path d="m246.755 332.529c17.605-53.375 67.867-92.774 128.25-92.774h.006l10 134.998-10 134.998c-.004 0-.007 0-.011 0-59.733 0-110.654-38.887-128.324-93.002-16.568-15.314-30.365-28.077-46.847-43.325z" fill="#9ddff6"/><path d="m510 374.75c0 74.268-60.166 134.995-134.989 135.001 0-14.456 0-255.317 0-269.996 74.433.003 134.989 60.56 134.989 134.995z" fill="#8bb9ff"/><path d="m59.579 395.291c-34.702 12.5-59.579 45.754-59.579 84.709v30h90l10-42-10-63z" fill="#ff8080"/><path d="m90 405v105h90v-30c0-38.955-24.878-72.209-59.58-84.709z" fill="#f37"/><path d="m37.5 352.5c0 28.995 23.504 52.5 52.5 52.5l10-52.5-10-52.5c-28.994 0-52.5 23.504-52.5 52.5z" fill="#fccabb"/><path d="m142.5 352.5c0-28.994-23.504-52.5-52.5-52.5v105c28.994 0 52.5-23.504 52.5-52.5z" fill="#fdbba7"/><path d="m315.014 419.751v-30h59.997l10 15.413-10 14.587z" fill="#fff5f5"/><path d="m375.011 389.751h60.003v30h-60.003z" fill="#e6ecf2"/><path d="m315.014 329.751h59.997l10 14.995-10 15.005h-59.997z" fill="#fff5f5"/><path d="m375.011 329.751h60.003v30h-60.003z" fill="#e6ecf2"/><g><g><path d="m.011 135.006c0 74.267 60.166 134.994 134.989 135 0-14.456 0-255.317 0-269.996-74.434.003-134.989 60.561-134.989 134.996z" fill="#fff17d"/><path d="m263.256 92.785c-17.605-53.376-67.867-92.775-128.25-92.775-.002 0-.004 0-.006 0v269.996h.011c59.733 0 110.654-38.887 128.324-93.002 16.568-15.313 30.365-28.077 46.847-43.325z" fill="#ffd845"/><path d="m135 150.007h59.997v30h-59.997z" fill="#e6ecf2"/><path d="m74.997 180.007h60.003c0-10.562 0-19.578 0-30h-60.003z" fill="#fff5f5"/><path d="m135 90.007h59.997v30h-59.997z" fill="#e6ecf2"/><path d="m74.997 90.007v30h60.003c0-10.386 0-19.325 0-30z" fill="#fff5f5"/></g><path d="m.011 135.006c0 74.267 60.166 134.994 134.989 135l10-130.506-10-139.49c-74.434.003-134.989 60.561-134.989 134.996z" fill="#2ee6a8"/><path d="m263.256 92.785c-17.605-53.376-67.867-92.775-128.25-92.775-.002 0-.004 0-.006 0v269.996h.011c59.733 0 110.654-38.887 128.324-93.002 16.568-15.313 30.365-28.077 46.847-43.325z" fill="#24b3b3"/><path d="m74.997 180.418h60.003l10-14.588-10-15.412h-60.003z" fill="#fff5f5"/><path d="m74.997 90.007v30h60.003l10-15.006-10-14.994z" fill="#fff5f5"/><g fill="#e6ecf2"><path d="m135 150.007h59.997v30h-59.997z"/><path d="m135 90.007h59.997v30h-59.997z"/></g></g><path d="m389.579 95.292c-34.702 12.5-59.579 45.753-59.579 84.709v30h90l10-42-10-63.001z" fill="#8095ff"/><path d="m420 105v105.001h90v-30c0-38.955-24.878-72.21-59.58-84.71z" fill="#8066ff"/><path d="m367.5 52.501c0 28.994 23.504 52.5 52.5 52.5l10-52.5-10-52.5c-28.994 0-52.5 23.503-52.5 52.5z" fill="#fccabb"/><path d="m472.5 52.501c0-28.994-23.504-52.5-52.5-52.5v105c28.994 0 52.5-23.505 52.5-52.5z" fill="#fdbba7"/></g></svg>