<svg height="512pt" viewBox="0 0 512 512" width="512pt" xmlns="http://www.w3.org/2000/svg"><path d="m421 361v151h-330v-151l62.402344-68.101562 102.597656-51.898438 119.398438 46.800781zm0 0" fill="#fdbf00"/><path d="m421 361v151h-165v-271l119.398438 46.800781zm0 0" fill="#ff9100"/><path d="m241 123.101562h30v87.898438h-30zm0 0" fill="#fdbf00"/><path d="m353.5 68.699219-67.5-9.601563-30-59.097656-29.699219 59.097656-67.5 9.601563 48.898438 46.5-11.398438 65.097656 59.699219-30.597656 60 30.601562-11.398438-65.101562zm0 0" fill="#ffda2d"/><path d="m181 211h-30c0-49.628906-40.371094-90-90-90h-30v-30h30c66.167969 0 120 53.832031 120 120zm0 0" fill="#fdbf00"/><path d="m361 211h-30c0-66.167969 53.832031-120 120-120h30v30h-30c-49.628906 0-90 40.371094-90 90zm0 0" fill="#ff9100"/><g fill="#25d9f8"><path d="m91 31h30v30h-30zm0 0"/><path d="m60 181h30v30h-30zm0 0"/><path d="m30 151h30v30h-30zm0 0"/><path d="m30 211h30v30h-30zm0 0"/><path d="m0 181h30v30h-30zm0 0"/></g><path d="m482 181h30v30h-30zm0 0" fill="#00c0f1"/><path d="m452 151h30v30h-30zm0 0" fill="#00c0f1"/><path d="m452 211h30v30h-30zm0 0" fill="#00c0f1"/><path d="m422 181h30v30h-30zm0 0" fill="#00c0f1"/><path d="m391 31h30v30h-30zm0 0" fill="#00c0f1"/><path d="m97.972656 241-79.996094 120h186.050782l51.972656-120zm0 0" fill="#ffda2d"/><path d="m414.027344 241h-158.027344l51.972656 120h186.050782zm0 0" fill="#fdbf00"/><path d="m256 123.101562h15v87.898438h-15zm0 0" fill="#ff9100"/><path d="m304.601562 115.199219 11.398438 65.097656-60-30.597656v-149.699219l30 59.097656 67.5 9.601563zm0 0" fill="#fdbf00"/></svg>