<?xml version="1.0" encoding="iso-8859-1"?>
<!-- Generator: Adobe Illustrator 19.0.0, SVG Export Plug-In . SVG Version: 6.00 Build 0)  -->
<svg version="1.1" id="Capa_1" xmlns="http://www.w3.org/2000/svg" xmlns:xlink="http://www.w3.org/1999/xlink" x="0px" y="0px"
	 viewBox="0 0 512 512" style="enable-background:new 0 0 512 512;" xml:space="preserve">
<path style="fill:#FED2A4;" d="M512,392L353,512H0V332h69.8c27.299-26.4,57.9-36,82.2-36c24.901,0,49.799,8.699,69.3,26.1
	c5.4,3.9,8.699,9.901,17.1,9.901H332c0,15.3-5.7,29.099-15,39.6C305.9,384.2,289.701,392,272,392h-90v30h179.099l69.001-45.3
	C457.7,358.4,493.7,366.2,512,392z"/>
<g>
	<path style="fill:#FFBD86;" d="M332,332c0,15.3-5.7,29.099-15,39.6V332H332z"/>
	<path style="fill:#FFBD86;" d="M512,392L353,512h-36v-90h44.099l69.001-45.3C457.7,358.4,493.7,366.2,512,392z"/>
</g>
<path style="fill:#FF7C96;" d="M392.3,0c-31.5,0-59.101,16.199-75.3,40.8C300.801,16.199,273.5,0,242,0
	c-52.8,0-89.7,41.4-89.7,100.8c0,73.5,63.6,115.699,138.3,181.399L317,307.1l41.7-35.1C427.099,212.3,482,168.6,482,100.8
	C482,41.4,445.101,0,392.3,0z"/>
<path style="fill:#FF5C7D;" d="M358.7,272L317,307.099V40.8C333.199,16.199,360.801,0,392.3,0C445.1,0,482,41.4,482,100.8
	C482,168.6,427.099,212.3,358.7,272z"/>
<g>
</g>
<g>
</g>
<g>
</g>
<g>
</g>
<g>
</g>
<g>
</g>
<g>
</g>
<g>
</g>
<g>
</g>
<g>
</g>
<g>
</g>
<g>
</g>
<g>
</g>
<g>
</g>
<g>
</g>
</svg>
