<svg id="Layer_1" enable-background="new 0 0 510 510" height="512" viewBox="0 0 510 510" width="512" xmlns="http://www.w3.org/2000/svg"><g><path d="m255 435 10-44.824-10-45.176-150-195h-75v285l104.765 15.176z" fill="#88b4f9"/><path d="m105 0v345h150l15-172.5-15-172.5c-10.128 0-139.871 0-150 0z" fill="#f9f9f9"/><path d="m480 435c0-10.274 0-78.81 0-90l-112.5-10-112.5 10v90l120.706 15.176z" fill="#6b6fda"/><path d="m510 345c0-24.602 0-328.04 0-345-7.193 0-247.807 0-255 0v345z" fill="#e7f1f9"/><path d="m218.787 60h30v30h-30z" fill="#bcf0ae"/><path d="m278.787 60h30v30h-30z" fill="#cd4957"/><path d="m158.787 60h30v30h-30z" fill="#f1cb30"/><path d="m223.181 265.606-55.607-55.606 55.607-55.606 21.213 21.212-34.393 34.394 34.393 34.394z" fill="#37617a"/><path d="m373.181 175.606c11.466 11.466 22.935 22.936 34.393 34.394-11.466 11.466-22.935 22.936-34.393 34.394 7.419 7.419 13.794 13.794 21.213 21.213 6.726-6.727 48.835-48.836 55.606-55.607-6.727-6.727-48.835-48.835-55.606-55.606-7.419 7.419-13.794 13.794-21.213 21.212z" fill="#254050"/><path d="m279.078 282.059c10.289 2.058 19.129 3.825 29.418 5.883 3.647-18.234 26.345-131.725 30-149.999-2.916-.583-26.446-5.29-29.418-5.884-3.647 18.234-26.345 131.725-30 150z" fill="#254050"/><path d="m255 510h-255v-75h255l10 36z" fill="#447895"/><path d="m255 435h255v75h-255z" fill="#37617a"/></g></svg>