<svg id="Capa_1" enable-background="new 0 0 512 512" viewBox="0 0 512 512" xmlns="http://www.w3.org/2000/svg"><g><path d="m189.079 377.095-19.121 99.851h86.042l11.695-54.027-11.695-45.824-31.331-8.862z" fill="#7f94fd"/><path d="m322.921 377.095-31.367-8.862-35.554 8.862v99.851h86.042z" fill="#6665ff"/><path d="m0 35.054v278.307l135.257 27.913 120.743-27.913 20.52-156.712-20.52-121.595z" fill="#e6f8fc"/><path d="m512 35.054h-256v278.307l138.056 36.386 117.944-36.386z" fill="#d0e8ff"/><path d="m0 313.361v63.734h256l11.695-31.867-11.695-31.867z" fill="#98ccfe"/><path d="m256 313.361h256v63.734h-256z" fill="#7f94fd"/><path d="m105 182.066c-24.813 0-45-20.187-45-45s20.187-45 45-45 45 20.187 45 45-20.187 45-45 45z" fill="#c6ea4b"/><path d="m180 92.066h30v172h-30z" fill="#3869ad"/><path d="m60 212.066h90v30h-90z" fill="#3869ad"/><path d="m279.859 263.843-23.859-17.553 44.078-61.74 52.536 14.724 62.942-45.231 52.846 44.86-19.414 22.871-34.969-29.684-55.612 39.964-46.257-12.965z" fill="#59c87f"/><path d="m300 92.066h30v30h-30z" fill="#ef3800"/><path d="m360 92.066h30v30h-30z" fill="#ef3800"/><path d="m241 92.066v30h15l3.069-15-3.069-15z" fill="#ff712f"/><path d="m256 92.066h15v30h-15z" fill="#ef3800"/></g><g/><g/><g/><g/><g/><g/><g/><g/><g/><g/><g/><g/><g/><g/><g/></svg>