<svg id="Capa_1" enable-background="new 0 0 512 512" height="512" viewBox="0 0 512 512" width="512" xmlns="http://www.w3.org/2000/svg"><g><g><g><g><path d="m26.052 368.492c-27.682-56.428-33.528-120.971-16.463-181.74 17.19-61.209 56.323-113.565 110.193-147.424 38.696-24.321 83.169-37.868 128.614-39.175 44.086-1.261 88.035 8.925 127.063 29.478l-13.977 26.542c-34.47-18.153-73.289-27.162-112.224-26.035-40.096 1.153-79.348 13.114-113.513 34.587-47.556 29.891-82.103 76.108-97.276 130.137-15.067 53.653-9.913 110.624 14.513 160.417z" fill="#ffda2d"/></g></g></g><g><g><g><path d="m256.414 511.951c-45.63 0-90.499-12.183-129.857-35.273l15.178-25.874c35.519 20.837 75.018 31.226 114.453 31.227 41.662.001 83.253-11.592 120.033-34.709 49.542-31.139 84.668-79.534 98.906-136.269 14.194-56.56 6.229-115.583-22.43-166.197l26.103-14.78c32.472 57.348 41.499 124.213 25.421 188.279-16.129 64.27-55.919 119.091-112.038 154.364-40.403 25.395-86.851 38.959-134.324 39.227-.479.004-.963.005-1.445.005z" fill="#ffda2d"/></g></g></g><g><g><g><path d="m257 .055v29.996c36.322.198 72.298 9.173 104.482 26.122l13.977-26.542c-36.488-19.215-77.278-29.367-118.459-29.576z" fill="#fdbf00"/></g></g></g><g><g><g><path d="m478.801 130.077-26.103 14.78c28.658 50.614 36.624 109.637 22.43 166.197-14.238 56.735-49.364 105.13-98.906 136.269-36.542 22.967-77.831 34.554-119.222 34.702v29.925c.287-.001.575-.001.861-.002 47.472-.268 93.921-13.833 134.324-39.227 56.119-35.273 95.908-90.094 112.038-154.364 16.077-64.067 7.049-130.932-25.422-188.28z" fill="#fdbf00"/></g></g></g><g><g><g><path d="m98.754 495.716c-34.429-.023-60.979-30.241-56.571-64.386 3.643-28.223 28.013-49.636 56.47-49.617 34.429.023 60.979 30.241 56.571 64.387-3.642 28.222-28.013 49.635-56.47 49.616z" fill="#00d7df"/></g></g></g><g><g><g><g><path d="m294.245 408.753h-76.49l-5.672-29.219c-4.248-1.514-8.418-3.248-12.488-5.194l-24.701 16.634-54.032-54.142 16.685-24.668c-1.9-3.995-3.596-8.084-5.08-12.247l-29.219-5.672v-76.49l29.219-5.672c1.514-4.249 3.248-8.418 5.194-12.489l-16.634-24.702 54.142-54.031 24.668 16.684c3.995-1.9 8.083-3.596 12.247-5.08l5.672-29.219h76.49l5.672 29.219c4.249 1.514 8.419 3.248 12.489 5.194l24.701-16.633 54.031 54.141-16.684 24.668c1.9 3.995 3.596 8.083 5.08 12.247l29.219 5.672v76.49l-29.219 5.672c-1.514 4.248-3.248 8.418-5.194 12.489l16.633 24.701-54.141 54.031-24.668-16.684c-3.995 1.9-8.084 3.596-12.247 5.08z" fill="#44569b"/></g></g></g><g><g><g><path d="m408.753 294.245v-76.49l-29.219-5.672c-1.484-4.164-3.18-8.251-5.08-12.247l16.684-24.668-54.031-54.141-24.701 16.633c-4.071-1.946-8.241-3.68-12.489-5.194l-5.672-29.218h-37.416v305.506h37.416l5.672-29.219c4.163-1.484 8.251-3.18 12.247-5.08l24.668 16.684 54.141-54.031-16.633-24.701c1.946-4.071 3.68-8.24 5.194-12.489z" fill="#203f7c"/></g></g></g><g><g><g><path d="m257.19 331.258c-41.498 0-75.259-33.761-75.259-75.258 0-41.498 33.761-75.259 75.259-75.259s75.259 33.761 75.259 75.259-33.761 75.258-75.259 75.258z" fill="#f2f2fc"/></g></g></g><g><g><g><path d="m257.19 180.742c-.121 0-.24.009-.361.009v150.499c.121 0 .24.009.361.009 41.498 0 75.259-33.761 75.259-75.258 0-41.499-33.761-75.259-75.259-75.259z" fill="#e2d9fb"/></g></g></g></g><g><path d="m98.654 381.713c-.164 0-.324.023-.487.03v113.942c.197.008.388.031.588.031 28.457.019 52.828-21.394 56.47-49.616 4.407-34.146-22.143-64.364-56.571-64.387z" fill="#00b2cc"/></g><g><g><g><path d="m403.754 129.716c-34.429-.023-60.979-30.241-56.571-64.386 3.643-28.223 28.013-49.636 56.47-49.617 34.429.023 60.979 30.241 56.571 64.387-3.642 28.223-28.013 49.635-56.47 49.616z" fill="#00d7df"/></g></g></g><g><path d="m403.654 15.713c-.164 0-.324.023-.487.03v113.942c.197.008.388.031.588.031 28.457.019 52.828-21.394 56.47-49.616 4.407-34.145-22.143-64.364-56.571-64.387z" fill="#00b2cc"/></g></g></svg>