<svg id="Capa_1" enable-background="new 0 0 512.034 512.034" height="512" viewBox="0 0 512.034 512.034" width="512" xmlns="http://www.w3.org/2000/svg"><g><path d="m133.327 322.922c0 67.652 55.039 122.69 122.69 122.69l18.77-121.899-18.77-123.482c-67.652 0-122.69 55.039-122.69 122.691z" fill="#fff161"/><path d="m256.017 200.231v245.381c67.652 0 122.69-55.039 122.69-122.69.001-67.652-55.038-122.691-122.69-122.691z" fill="#fadf00"/><path d="m256.017 361.892c-20.826 0-37.77-16.943-37.77-37.771h-30c0 37.369 30.401 67.771 67.77 67.771l13.819-14.016z" fill="#445f80"/><path d="m323.787 324.121h-30c0 20.827-16.943 37.771-37.77 37.771v30c37.368 0 67.77-30.402 67.77-67.771z" fill="#2a2b4c"/><g><g><g><path d="m211.017 269.157h30v30.375h-30z" fill="#445f80"/></g></g></g><g><g><g><path d="m271.017 269.157h30v30.375h-30z" fill="#2a2b4c"/></g></g></g><g><g><g><path d="m512 323.029h-78.888c-.105-48.225-19.483-92.002-50.813-124.046l7.505-43.792 48.251-11.963c45.613 46.33 73.839 109.826 73.945 179.801z" fill="#71c6a1"/><path d="m255.005 145.31c-4.052 0-8.518-41.25-12.504-40.982l12.504-37.906c71.58 0 136.406 29.427 183.05 76.805l-55.755 55.755c-32.357-33.094-77.464-53.672-127.295-53.672z" fill="#aae392"/></g><g><path d="m74.862 142.289 44.337 12.681 11.421 43.078c-31.873 32.121-51.627 76.284-51.733 124.981h-78.887c.106-70.445 28.707-134.33 74.862-180.74z" fill="#b8b5eb"/><path d="m256.995 66.422v78.888c-4.052 0-8.069.149-12.054.417-44.561 2.993-84.68 22.451-114.32 52.321l-55.758-55.758c46.573-46.831 111.022-75.868 182.132-75.868z" fill="#a09be4"/></g></g><g><path d="m512.034 159.022-117.054 27.282 42.274-63.26 74.78-53.794z" fill="#d7e9fe"/></g><path d="m422.322 69.25h89.712l-117.054 117.054z" fill="#edf6ff"/></g></g></svg>