<svg id="Layer_1" enable-background="new 0 0 510 510" height="512" viewBox="0 0 510 510" width="512" xmlns="http://www.w3.org/2000/svg"><g><path d="m240 435v32.58c-17.481 6.2-30 22.888-30 42.42h30c0-8.271 6.728-15 15-15l10-30-10-30-7.5-10z" fill="#404a80"/><path d="m270 510h30c0-19.532-12.52-36.221-30-42.42 0-11.395 0-21.186 0-32.58l-7.5-10-7.5 10v60c8.271 0 15 6.728 15 15z" fill="#283366"/><path d="m0 0v120h60l195-60 10-30-10-30z" fill="#404a80"/><path d="m450 120h60v-120h-255v60z" fill="#283366"/><path d="m60 60v345l97.5 10 97.5-10 10-172.5-10-172.5c-10.822 0-184.178 0-195 0z" fill="#2ee6a8"/><path d="m450 60c-10.822 0-184.178 0-195 0v345l97.5 10 97.5-10z" fill="#24b3b3"/><path d="m90 90v315l82.5 10 82.5-10 10-157.5-10-157.5c-4.655 0-160.348 0-165 0z" fill="#fff5f5"/><path d="m420 90c-4.655 0-160.348 0-165 0v315l82.5 10 82.5-10z" fill="#ece6f2"/><path d="m225 165 15 15h15l10-15-10-15h-23.053z" fill="#404a80"/><path d="m300 150h-45v30h45l10-15z" fill="#283366"/><path d="m180 285-15 10-15-10v-53.053l14.417-6.947 15.583 15z" fill="#404a80"/><path d="m218.417 215.75-6.913 15.295 43.496 37.282 10-19.756-10-19.756c-7.682-6.584-16.045-13.753-22.691-19.45z" fill="#404a80"/><path d="m320.546 284.998-65.546-56.183v39.512l45.003 38.574 14.997-6.901z" fill="#283366"/><path d="m30 405v30h225l10-15-10-15z" fill="#24b3b3"/><path d="m480 405h-225v30h225c0-10.492 0-19.508 0-30z" fill="#198080"/><path d="m180 240c-33.084 0-60-26.916-60-60s26.916-60 60-60 60 26.916 60 60-26.916 60-60 60z" fill="#ff9000"/><path d="m210 375h-90v-90h90z" fill="#6cf"/><g fill="#39f"><path d="m300 285h90v90h-90z"/><path d="m300 210h90c0-10.889 0-79.039 0-90-10.889 0-79.039 0-90 0z"/></g></g></svg>